<svg width="85" height="28" viewBox="0 0 85 28" fill="none" xmlns="http://www.w3.org/2000/svg">
<g clip-path="url(#clip0)">
<path d="M52.9456 15.12L52.9362 15.043C52.411 10.9481 49.3025 8.59961 44.408 8.59961C44.1744 8.59961 43.9337 8.60509 43.6942 8.61507C40.4359 8.75579 37.4695 10.0268 35.5543 12.1036C33.9013 13.8956 33.0905 16.2503 33.2109 18.9134C33.4919 25.1607 39.2202 27.9565 44.7711 27.9559C45.0569 27.9559 45.3437 27.9481 45.626 27.9323C47.8824 27.7952 50.0647 27.0817 51.9616 25.8611L51.994 25.8411V25.1971L51.8779 25.3053C50.6677 26.4362 47.8503 27.6467 45.5838 27.6467C41.1961 27.6081 39.2896 23.0682 38.9713 18.8303C38.9035 17.5911 38.9641 16.3482 39.1521 15.1212L52.9456 15.12ZM43.6991 8.90135C46.05 8.75322 47.3134 10.761 47.473 14.8707H39.1693C39.4898 12.6797 40.5021 9.07396 43.7001 8.90296L43.6991 8.90135Z" fill="black"/>
<path d="M30.82 23.2424V5.74813C30.82 1.63395 31.1289 0.551307 31.3128 0.273722L31.4939 0L31.2178 0.179045C29.2445 1.45974 26.7081 1.86871 24.9263 1.98624L24.851 1.99139L24.863 2.06514C24.9582 2.77723 24.9985 3.4955 24.9837 4.21368V8.63637C24.3348 8.59644 23.6982 8.56166 23.037 8.56166C21.7764 8.55497 20.52 8.70831 19.2985 9.01796C15.9464 9.86521 11.4562 11.7445 11.1697 18.2601C11.0399 21.26 11.8529 23.756 13.516 25.4785C15.084 27.1019 17.3103 27.9581 19.9568 27.9581C22.1682 27.9581 23.8644 26.9644 24.8828 25.0789C24.7491 26.757 24.7205 27.7308 24.3831 27.7308L24.3416 27.7482V27.9578H33.1988V27.725H33.1304C31.1529 27.7237 30.82 26.2553 30.82 23.2424ZM20.9009 27.4448C20.5591 27.4395 20.222 27.3641 19.9108 27.2235C19.5996 27.0828 19.321 26.88 19.0925 26.6275C17.7029 25.2174 16.923 22.1192 17.0063 18.336C17.0914 13.014 18.1214 10.1286 20.2491 9.25723C20.872 8.99285 21.9661 8.84697 23.3313 8.84697C23.8867 8.84697 24.4574 8.87177 24.9859 8.91975V21.7064C24.9859 22.7671 24.9859 23.6063 24.9489 24.3502C24.0561 26.3171 22.5822 27.4445 20.8993 27.4445L20.9009 27.4448Z" fill="black"/>
<path d="M8.78354 9.40949L8.69918 9.48355C7.00723 11.3384 4.34294 12.0469 2.40668 12.3145L2.34179 12.3228L2.34601 12.3872C2.3671 12.7614 2.37847 13.1762 2.37847 13.6551V23.5827C2.37847 26.6233 2.04364 27.6348 0.0687732 27.6348H0V27.9581H10.5929V27.6328H10.5245C8.549 27.6328 8.2145 26.6304 8.2145 23.6178V15.1889C8.2145 10.3221 8.64988 9.48227 8.78322 9.4082" fill="black"/>
<path d="M5.38615 6.5806C6.99092 6.5806 8.29184 5.28936 8.29184 3.69655C8.29184 2.10373 6.99092 0.8125 5.38615 0.8125C3.78139 0.8125 2.48047 2.10373 2.48047 3.69655C2.48047 5.28936 3.78139 6.5806 5.38615 6.5806Z" fill="black"/>
<path d="M72.1566 27.5512C70.4925 27.5512 70.4146 26.1987 70.4146 23.6109V14.8812C70.4146 9.173 64.6649 8.55664 62.1924 8.55664C58.072 8.55664 55.9679 10.8668 55.3732 12.2332C55.2065 12.5937 55.1222 12.9863 55.1264 13.3829C55.1306 13.7796 55.2232 14.1704 55.3976 14.5273C55.5196 14.7658 55.6935 14.9743 55.9068 15.1378C56.12 15.3014 56.3672 15.4158 56.6305 15.4728C56.9374 15.546 57.2591 15.5302 57.5572 15.4272C57.8554 15.3241 58.1174 15.1382 58.3121 14.8915C58.4579 14.6966 58.5561 14.4708 58.599 14.2317C58.6419 13.9927 58.6283 13.7471 58.5593 13.5142C58.431 13.1414 58.2328 12.796 57.9753 12.4963C57.5902 11.9855 57.2573 11.5453 57.5723 10.8279C58.1784 9.58518 59.8632 8.84324 62.0775 8.84324C62.3861 8.81892 62.6965 8.85692 62.9899 8.95494C63.2833 9.05295 63.5537 9.20896 63.7847 9.41354C64.5893 10.2154 64.5841 11.7885 64.5767 13.7799C64.5767 13.9692 64.5767 14.1617 64.5767 14.3573V17.7707C64.0947 18.1125 63.5631 18.3797 63.0002 18.5629C62.0008 18.8725 60.9821 19.1166 59.9505 19.2936C56.8514 19.8974 53.9247 20.467 53.7819 23.9832C53.7409 24.4683 53.8022 24.9565 53.9619 25.4167C54.1217 25.8769 54.3764 26.299 54.7098 26.656C55.5511 27.5229 56.9656 27.9998 58.6913 27.9998C59.6019 28 60.5076 27.8691 61.3803 27.6111C62.8 27.2089 63.9281 26.1978 64.7346 24.6044C65.2924 26.8264 67.5719 27.9515 71.5154 27.9515C72.1966 27.9584 72.8692 27.8009 73.4754 27.4926L73.5078 27.4727V27.0669L73.3965 27.1555C73.032 27.4068 72.6003 27.5446 72.1566 27.5512ZM64.5776 18.1539V23.4238C64.5815 23.6595 64.6061 23.8944 64.651 24.1259C63.9508 25.593 63.0751 26.5562 61.9733 27.0708C61.0055 27.5586 60.2454 27.5326 59.7428 26.9948C59.1452 26.3549 58.9074 25.0182 59.0534 23.1282C59.2529 20.1247 60.9757 19.5402 62.6407 18.9741C62.8412 18.9065 63.0401 18.8386 63.2361 18.7674C63.7015 18.6048 64.1506 18.3995 64.5776 18.1543V18.1539Z" fill="black"/>
<path d="M84.9328 27.6332C82.9729 27.6332 82.6238 26.5705 82.6238 23.5808V6.12359C82.6238 2.63607 82.8509 1.32737 83.0423 0.842398L83.1147 0.658203L82.943 0.758993C80.9536 1.92247 78.4758 2.27927 76.7463 2.37362L76.6703 2.37749L76.6823 2.45252C76.7806 3.15962 76.8279 3.87278 76.8238 4.58657V23.5789C76.7852 26.6201 76.4462 27.6322 74.5138 27.6322H74.4453V27.9562H84.9997V27.6322L84.9328 27.6332Z" fill="black"/>
</g>
<defs>
<clipPath id="clip0">
<rect width="85" height="28" fill="white"/>
</clipPath>
</defs>
</svg>
