<svg width="91" height="30" viewBox="0 0 91 30" fill="none" xmlns="http://www.w3.org/2000/svg">
<g clip-path="url(#clip0)">
<path d="M56.304 16.2029L56.294 16.1204C55.7354 11.7331 52.4297 9.2168 47.2247 9.2168C46.9763 9.2168 46.7202 9.22266 46.4656 9.23336C43.0005 9.38414 39.8459 10.746 37.8093 12.971C36.0513 14.8911 35.1891 17.4139 35.3171 20.2673C35.6159 26.9608 41.7077 29.9563 47.6108 29.9556C47.9147 29.9556 48.2197 29.9473 48.5199 29.9304C50.9195 29.7835 53.2403 29.019 55.2576 27.7112L55.2921 27.6898V26.9998L55.1685 27.1157C53.8816 28.3274 50.8854 29.6244 48.4751 29.6244C43.8089 29.583 41.7815 24.7188 41.4431 20.1783C41.3709 18.8505 41.4353 17.5189 41.6352 16.2043L56.304 16.2029ZM46.4708 9.54009C48.9708 9.38138 50.3144 11.5326 50.4842 15.9358H41.6536C41.9944 13.5883 43.0709 9.72503 46.4718 9.54182L46.4708 9.54009Z" fill="black"/>
<path d="M32.7738 24.9045V6.16067C32.7738 1.75262 33.1022 0.59264 33.2978 0.295227L33.4904 0.00195312L33.1968 0.193787C31.0983 1.56596 28.4009 2.00414 26.506 2.13007L26.426 2.13559L26.4387 2.2146C26.54 2.97756 26.5829 3.74713 26.5671 4.51661V9.2552C25.877 9.21242 25.2001 9.17516 24.4969 9.17516C23.1563 9.16799 21.8202 9.33229 20.5212 9.66406C16.9564 10.5718 12.1812 12.5854 11.8766 19.5663C11.7386 22.7806 12.6032 25.4548 14.3718 27.3004C16.0393 29.0397 18.4069 29.9571 21.2213 29.9571C23.573 29.9571 25.3767 28.8924 26.4598 26.8722C26.3176 28.6702 26.2873 29.7135 25.9284 29.7135L25.8843 29.7321V29.9568H35.3035V29.7073H35.2307C33.1278 29.7059 32.7738 28.1326 32.7738 24.9045ZM22.2253 29.4071C21.8617 29.4014 21.5032 29.3206 21.1723 29.1699C20.8414 29.0193 20.5451 28.8019 20.3021 28.5315C18.8243 27.0206 17.9949 23.7011 18.0836 19.6477C18.174 13.9455 19.2694 10.8541 21.5321 9.92042C22.1946 9.63715 23.358 9.48085 24.8099 9.48085C25.4006 9.48085 26.0075 9.50742 26.5695 9.55883V23.2588C26.5695 24.3953 26.5695 25.2944 26.5302 26.0914C25.5806 28.1988 24.0132 29.4068 22.2236 29.4068L22.2253 29.4071Z" fill="black"/>
<path d="M9.34037 10.0834L9.25067 10.1628C7.45136 12.1501 4.61802 12.9092 2.5589 13.1959L2.48989 13.2049L2.49438 13.2739C2.51681 13.6748 2.52889 14.1192 2.52889 14.6322V25.269C2.52889 28.5268 2.17282 29.6105 0.0726486 29.6105H-0.000488281V29.9569H11.2646V29.6084H11.1918C9.09095 29.6084 8.73523 28.5344 8.73523 25.3066V16.2756C8.73523 11.0612 9.19823 10.1614 9.34004 10.082" fill="black"/>
<path d="M5.72726 7.05315C7.43385 7.05315 8.81731 5.66969 8.81731 3.9631C8.81731 2.25651 7.43385 0.873047 5.72726 0.873047C4.02067 0.873047 2.63721 2.25651 2.63721 3.9631C2.63721 5.66969 4.02067 7.05315 5.72726 7.05315Z" fill="black"/>
<path d="M76.7358 29.5213C74.9662 29.5213 74.8834 28.0722 74.8834 25.2995V15.9462C74.8834 9.83031 68.7688 9.16992 66.1394 9.16992C61.7576 9.16992 59.52 11.6451 58.8876 13.1091C58.7102 13.4953 58.6206 13.916 58.6251 14.341C58.6296 14.7659 58.7281 15.1847 58.9135 15.5671C59.0432 15.8226 59.2282 16.046 59.455 16.2212C59.6817 16.3964 59.9446 16.519 60.2246 16.58C60.551 16.6586 60.8931 16.6416 61.2102 16.5312C61.5272 16.4208 61.8059 16.2216 62.0129 15.9573C62.168 15.7485 62.2724 15.5065 62.3181 15.2504C62.3637 14.9943 62.3492 14.7311 62.2758 14.4816C62.1393 14.0822 61.9286 13.7121 61.6547 13.391C61.2452 12.8438 60.8912 12.3721 61.2262 11.6034C61.8707 10.2719 63.6624 9.47699 66.0172 9.47699C66.3454 9.45094 66.6755 9.49165 66.9875 9.59667C67.2996 9.70169 67.5871 9.86884 67.8328 10.088C68.6884 10.9471 68.6829 12.6326 68.675 14.7662C68.675 14.9691 68.675 15.1753 68.675 15.3849V19.0421C68.1624 19.4084 67.5971 19.6946 66.9985 19.8909C65.9357 20.2226 64.8523 20.4841 63.7552 20.6738C60.4596 21.3207 57.3471 21.931 57.1953 25.6984C57.1516 26.2181 57.2168 26.7412 57.3867 27.2343C57.5567 27.7274 57.8275 28.1796 58.1821 28.5621C59.0767 29.4909 60.581 30.0019 62.4162 30.0019C63.3845 30.0021 64.3477 29.8618 65.2758 29.5855C66.7856 29.1545 67.9853 28.0711 68.843 26.3639C69.4361 28.7446 71.8602 29.9501 76.054 29.9501C76.7784 29.9575 77.4937 29.7888 78.1383 29.4585L78.1728 29.4371V29.0024L78.0545 29.0972C77.6668 29.3665 77.2078 29.5141 76.7358 29.5213ZM68.676 19.4527V25.0991C68.6801 25.3516 68.7063 25.6032 68.754 25.8512C68.0094 27.4232 67.0782 28.4551 65.9065 29.0065C64.8773 29.5292 64.0689 29.5013 63.5344 28.9251C62.8989 28.2395 62.646 26.8073 62.8012 24.7823C63.0134 21.5643 64.8455 20.9381 66.6162 20.3315C66.8294 20.259 67.0409 20.1863 67.2493 20.11C67.7443 19.9358 68.2219 19.7159 68.676 19.4531V19.4527Z" fill="black"/>
<path d="M90.3204 29.6088C88.2361 29.6088 87.8649 28.4702 87.8649 25.267V6.56281C87.8649 2.82617 88.1064 1.42399 88.31 0.904383L88.3869 0.707031L88.2044 0.81502C86.0887 2.0616 83.4538 2.44389 81.6144 2.54498L81.5337 2.54912L81.5464 2.62951C81.651 3.38712 81.7012 4.15122 81.6969 4.91599V25.2649C81.6558 28.5234 81.2953 29.6078 79.2403 29.6078H79.1675V29.9549H90.3915V29.6078L90.3204 29.6088Z" fill="black"/>
</g>
<defs>
<clipPath id="clip0">
<rect width="90.3933" height="30" fill="white"/>
</clipPath>
</defs>
</svg>
