<svg width="102" height="34" viewBox="0 0 102 34" fill="none" xmlns="http://www.w3.org/2000/svg">
<g clip-path="url(#clip0)">
<path d="M63.5336 18.3629L63.5223 18.2694C62.892 13.2971 59.1618 10.4453 53.2884 10.4453C53.0081 10.4453 52.7192 10.452 52.4319 10.4641C48.5219 10.635 44.9622 12.1784 42.664 14.7001C40.6804 16.8762 39.7075 19.7354 39.8519 22.9692C40.1891 30.5552 47.0631 33.9501 53.7241 33.9493C54.0671 33.9493 54.4113 33.9399 54.75 33.9208C57.4577 33.7542 60.0765 32.8878 62.3528 31.4057L62.3917 31.3814V30.5994L62.2523 30.7308C60.8001 32.104 57.4192 33.5739 54.6994 33.5739C49.4341 33.527 47.1464 28.0143 46.7644 22.8683C46.6831 21.3635 46.7557 19.8543 46.9813 18.3644L63.5336 18.3629ZM52.4377 10.8117C55.2588 10.6318 56.7749 13.0699 56.9664 18.0602H47.002C47.3866 15.3997 48.6013 11.0213 52.4389 10.8137L52.4377 10.8117Z" fill="white"/>
<path d="M36.9823 28.2249V6.98183C36.9823 1.98604 37.3529 0.671398 37.5736 0.33433L37.7909 0.00195312L37.4596 0.219365C35.0917 1.77449 32.0479 2.2711 29.9097 2.41382L29.8194 2.42008L29.8338 2.50962C29.9481 3.37431 29.9965 4.24649 29.9787 5.11857V10.489C29.2 10.4405 28.4361 10.3983 27.6427 10.3983C26.1299 10.3901 24.6222 10.5763 23.1564 10.9523C19.1339 11.9811 13.7456 14.2632 13.4019 22.1749C13.2461 25.8177 14.2218 28.8486 16.2174 30.9402C18.0991 32.9114 20.7707 33.9511 23.9464 33.9511C26.6001 33.9511 28.6355 32.7444 29.8576 30.4549C29.6972 32.4926 29.6629 33.6751 29.258 33.6751L29.2082 33.6962V33.9507H39.8368V33.668H39.7547C37.3817 33.6664 36.9823 31.8834 36.9823 28.2249ZM25.0794 33.3278C24.6691 33.3213 24.2646 33.2298 23.8912 33.059C23.5178 32.8882 23.1835 32.6419 22.9092 32.3354C21.2417 30.6231 20.3058 26.861 20.4059 22.2672C20.5079 15.8046 21.744 12.301 24.2972 11.2429C25.0447 10.9218 26.3575 10.7447 27.9958 10.7447C28.6623 10.7447 29.3472 10.7748 29.9814 10.8331V26.3597C29.9814 27.6477 29.9814 28.6668 29.937 29.57C28.8655 31.9584 27.0969 33.3274 25.0774 33.3274L25.0794 33.3278Z" fill="white"/>
<path d="M10.5402 11.4273L10.439 11.5173C8.40867 13.7696 5.21153 14.6299 2.88802 14.9548L2.81015 14.965L2.81521 15.0432C2.84052 15.4976 2.85416 16.0012 2.85416 16.5827V28.6377C2.85416 32.3298 2.45237 33.558 0.0825278 33.558H0V33.9506H12.7115V33.5557H12.6294C10.2588 33.5557 9.8574 32.3384 9.8574 28.6803V18.4451C9.8574 12.5355 10.3799 11.5157 10.5399 11.4258" fill="white"/>
<path d="M6.46338 7.9924C8.3891 7.9924 9.9502 6.42447 9.9502 4.49034C9.9502 2.55621 8.3891 0.988281 6.46338 0.988281C4.53766 0.988281 2.97656 2.55621 2.97656 4.49034C2.97656 6.42447 4.53766 7.9924 6.46338 7.9924Z" fill="white"/>
<path d="M86.5898 33.4574C84.593 33.4574 84.4995 31.8151 84.4995 28.6728V18.0724C84.4995 11.141 77.5998 10.3926 74.6328 10.3926C69.6883 10.3926 67.1635 13.1978 66.4499 14.857C66.2497 15.2947 66.1486 15.7714 66.1536 16.2531C66.1587 16.7347 66.2698 17.2093 66.4791 17.6427C66.6255 17.9322 66.8342 18.1855 67.0901 18.384C67.3459 18.5826 67.6426 18.7215 67.9585 18.7907C68.3268 18.8797 68.7129 18.8605 69.0706 18.7353C69.4284 18.6102 69.7428 18.3844 69.9764 18.0849C70.1514 17.8482 70.2693 17.574 70.3208 17.2838C70.3723 16.9936 70.3559 16.6953 70.2731 16.4125C70.1191 15.9598 69.8813 15.5404 69.5723 15.1764C69.1101 14.5563 68.7107 14.0217 69.0887 13.1505C69.816 11.6415 71.8378 10.7406 74.4949 10.7406C74.8653 10.7111 75.2377 10.7572 75.5898 10.8762C75.9419 10.9952 76.2664 11.1847 76.5436 11.4331C77.5091 12.4068 77.5029 14.3169 77.4939 16.7351C77.4939 16.965 77.4939 17.1987 77.4939 17.4362V21.5811C76.9155 21.9962 76.2777 22.3205 75.6022 22.543C74.403 22.919 73.1804 23.2153 71.9425 23.4303C68.2236 24.1635 64.7115 24.8552 64.5402 29.1248C64.491 29.7138 64.5646 30.3067 64.7563 30.8655C64.948 31.4243 65.2537 31.9369 65.6537 32.3704C66.6632 33.423 68.3607 34.0021 70.4315 34.0021C71.5242 34.0023 72.6111 33.8434 73.6583 33.5302C75.362 33.0418 76.7157 31.8139 77.6835 29.8791C78.3528 32.5772 81.0882 33.9435 85.8205 33.9435C86.6378 33.9519 87.445 33.7607 88.1724 33.3863L88.2113 33.362V32.8693L88.0778 32.9769C87.6404 33.282 87.1224 33.4493 86.5898 33.4574ZM77.4951 22.0464V28.4456C77.4998 28.7318 77.5292 29.017 77.5831 29.2981C76.7429 31.0796 75.6921 32.2492 74.37 32.874C73.2086 33.4664 72.2964 33.4348 71.6933 32.7818C70.9762 32.0048 70.6908 30.3816 70.866 28.0867C71.1054 24.4395 73.1728 23.7298 75.1708 23.0424C75.4114 22.9603 75.6501 22.8778 75.8853 22.7913C76.4437 22.5939 76.9826 22.3447 77.4951 22.0468V22.0464Z" fill="white"/>
<path d="M101.918 33.5581C99.5661 33.5581 99.1472 32.2677 99.1472 28.6374V7.43928C99.1472 3.20443 99.4197 1.61529 99.6494 1.0264L99.7362 0.802734L99.5303 0.925122C97.1429 2.33791 94.1696 2.77117 92.0941 2.88575L92.003 2.89044L92.0174 2.98155C92.1354 3.84017 92.1921 4.70615 92.1872 5.57289V28.635C92.1409 32.3279 91.734 33.5569 89.4152 33.5569H89.333V33.9503H101.998V33.5569L101.918 33.5581Z" fill="white"/>
</g>
<defs>
<clipPath id="clip0">
<rect width="102" height="34" fill="white"/>
</clipPath>
</defs>
</svg>
